<?xml version="1.0" encoding="UTF-8" standalone="no"?>
<svg width="24px" height="24px" viewBox="0 0 24 24" version="1.1" xmlns="http://www.w3.org/2000/svg" xmlns:xlink="http://www.w3.org/1999/xlink">
    <!-- Generator: Sketch 47.1 (45422) - http://www.bohemiancoding.com/sketch -->
    <title>icon-入口</title>
    <desc>Created with Sketch.</desc>
    <defs></defs>
    <g id="Page-1" stroke="none" stroke-width="1" fill="none" fill-rule="evenodd">
        <g id="首页" transform="translate(-1872.000000, -28.000000)" fill="#fff">
            <path d="M1895,52 L1890,52 L1890,50 L1894,50 L1894,46 L1896,46 L1896,52 L1895,52 Z M1872,51 L1872,46 L1874,46 L1874,50 L1878,50 L1878,52 L1872,52 L1872,51 Z M1896,29 L1896,34 L1894,34 L1894,30 L1890,30 L1890,28 L1896,28 L1896,29 Z M1873,28 L1878,28 L1878,30 L1874,30 L1874,34 L1872,34 L1872,28 L1873,28 Z M1876,32 L1892,32 L1892,48 L1876,48 L1876,32 Z M1878,34 L1878,46 L1890,46 L1890,34 L1878,34 Z" id="icon-入口"></path>
        </g>
    </g>
</svg>
